<svg width="46" height="46" viewBox="0 0 46 46" fill="none" xmlns="http://www.w3.org/2000/svg">
<g filter="url(#filter0_d_181_68676)">
<rect x="2" y="1" width="42" height="42" rx="8" fill="white"/>
<rect x="2.5" y="1.5" width="41" height="41" rx="7.5" stroke="#EAF3FD"/>
</g>
<circle cx="23" cy="22" r="11.6289" fill="#FFEFC1" stroke="white" stroke-width="0.742268"/>
<path d="M26.5879 19.6496C26.5879 18.6653 26.1969 17.7213 25.5009 17.0253C24.8049 16.3292 23.8609 15.9382 22.8766 15.9382C21.8923 15.9382 20.9483 16.3292 20.2523 17.0253C19.5563 17.7213 19.1652 18.6653 19.1652 19.6496C19.1652 23.9795 17.3096 25.2166 17.3096 25.2166H28.4436C28.4436 25.2166 26.5879 23.9795 26.5879 19.6496Z" stroke="#BF9105" stroke-width="0.989691" stroke-linecap="round" stroke-linejoin="round"/>
<path d="M23.9468 27.6909C23.8381 27.8784 23.682 28.034 23.4942 28.1422C23.3064 28.2503 23.0935 28.3073 22.8767 28.3073C22.66 28.3073 22.4471 28.2503 22.2593 28.1422C22.0715 28.034 21.9154 27.8784 21.8066 27.6909" stroke="#BF9105" stroke-width="0.989691" stroke-linecap="round" stroke-linejoin="round"/>
<defs>
<filter id="filter0_d_181_68676" x="0" y="0" width="46" height="46" filterUnits="userSpaceOnUse" color-interpolation-filters="sRGB">
<feFlood flood-opacity="0" result="BackgroundImageFix"/>
<feColorMatrix in="SourceAlpha" type="matrix" values="0 0 0 0 0 0 0 0 0 0 0 0 0 0 0 0 0 0 127 0" result="hardAlpha"/>
<feOffset dy="1"/>
<feGaussianBlur stdDeviation="1"/>
<feColorMatrix type="matrix" values="0 0 0 0 0.0392157 0 0 0 0 0.0496732 0 0 0 0 0.0705882 0 0 0 0.05 0"/>
<feBlend mode="normal" in2="BackgroundImageFix" result="effect1_dropShadow_181_68676"/>
<feBlend mode="normal" in="SourceGraphic" in2="effect1_dropShadow_181_68676" result="shape"/>
</filter>
</defs>
</svg>
