<svg width="46" height="46" viewBox="0 0 46 46" fill="none" xmlns="http://www.w3.org/2000/svg">
<g filter="url(#filter0_d_181_68630)">
<rect x="2" y="1" width="42" height="42" rx="8" fill="white"/>
<rect x="2.5" y="1.5" width="41" height="41" rx="7.5" stroke="#EAF3FD"/>
</g>
<circle cx="23" cy="22" r="11.6289" fill="#CDE2CE" stroke="white" stroke-width="0.742268"/>
<path d="M27.2065 27.6909H18.5467C18.2186 27.6909 17.9039 27.5606 17.6719 27.3286C17.4399 27.0966 17.3096 26.7819 17.3096 26.4538V17.794C17.3096 17.4659 17.4399 17.1512 17.6719 16.9192C17.9039 16.6872 18.2186 16.5569 18.5467 16.5569H25.3508L28.4436 19.6497V26.4538C28.4436 26.7819 28.3133 27.0966 28.0812 27.3286C27.8492 27.5606 27.5346 27.6909 27.2065 27.6909Z" stroke="#388E3C" stroke-width="0.989691" stroke-linecap="round" stroke-linejoin="round"/>
<path d="M25.9697 27.6909V22.7424H19.7842V27.6909" stroke="#388E3C" stroke-width="0.989691" stroke-linecap="round" stroke-linejoin="round"/>
<path d="M19.7842 16.5569V19.6497H24.7326" stroke="#388E3C" stroke-width="0.927835" stroke-linecap="round" stroke-linejoin="round"/>
<defs>
<filter id="filter0_d_181_68630" x="0" y="0" width="46" height="46" filterUnits="userSpaceOnUse" color-interpolation-filters="sRGB">
<feFlood flood-opacity="0" result="BackgroundImageFix"/>
<feColorMatrix in="SourceAlpha" type="matrix" values="0 0 0 0 0 0 0 0 0 0 0 0 0 0 0 0 0 0 127 0" result="hardAlpha"/>
<feOffset dy="1"/>
<feGaussianBlur stdDeviation="1"/>
<feColorMatrix type="matrix" values="0 0 0 0 0.0392157 0 0 0 0 0.0496732 0 0 0 0 0.0705882 0 0 0 0.05 0"/>
<feBlend mode="normal" in2="BackgroundImageFix" result="effect1_dropShadow_181_68630"/>
<feBlend mode="normal" in="SourceGraphic" in2="effect1_dropShadow_181_68630" result="shape"/>
</filter>
</defs>
</svg>
